ISO-10303-21;
HEADER;
/* Generated by software containing ST-Developer
 * from STEP Tools, Inc. (www.steptools.com) 
 */
/* OPTION: using custom renumber hook */

FILE_DESCRIPTION(
/* description */ ('STEP AP242 Edition 2',
'CAx-IF Rec.Pracs.---Representation and Presentation of Product Manufa
cturing Information (PMI)---4.0---2014-10-13',
'CAx-IF Rec.Pracs.---3D Tessellated Geometry---0.4---2014-09-14','2;1',
'CAx-IF Rec.Pracs.---User Defined Attributes---1.5---2016-08-15'),
/* implementation_level */ '2;1');

FILE_NAME(
/* name */ '6ab067b97c267818bfc412d2',
/* time_stamp */ '2026-09-20T23:09:45Z',
/* author */ (''),
/* organization */ (''),
/* preprocessor_version */ 'ST-DEVELOPER v20',
/* originating_system */ 'ONSHAPE BY PTC INC, 1.221',
/* authorisation */ '  ');

FILE_SCHEMA (('AP242_MANAGED_MODEL_BASED_3D_ENGINEERING_MIM_LF { 1 0 10303 442 3 1 4 }'));
ENDSEC;

DATA;
#10=CONTEXT_DEPENDENT_SHAPE_REPRESENTATION(#12,#950);
#11=NEXT_ASSEMBLY_USAGE_OCCURRENCE('NAUO1','Part 1','Part 1',#951,#952,
'');
#12=(
REPRESENTATION_RELATIONSHIP(' ',' ',#586,#585)
REPRESENTATION_RELATIONSHIP_WITH_TRANSFORMATION(#13)
SHAPE_REPRESENTATION_RELATIONSHIP()
);
#13=ITEM_DEFINED_TRANSFORMATION(' ',' ',#587,#641);
#14=SHAPE_REPRESENTATION_RELATIONSHIP('','',#586,#15);
#15=ADVANCED_BREP_SHAPE_REPRESENTATION('',(#582),#942);
#16=PLANE('',#609);
#17=PLANE('',#614);
#18=PLANE('',#615);
#19=PLANE('',#616);
#20=PLANE('',#617);
#21=PLANE('',#628);
#22=PLANE('',#635);
#23=PLANE('',#638);
#24=B_SPLINE_CURVE_WITH_KNOTS('',3,(#787,#788,#789,#790,#791,#792,#793,
#794),.UNSPECIFIED.,.F.,.F.,(4,1,1,1,1,4),(2.98756330314089E-5,0.00155959758125035,
0.00308931952946929,0.00385418050357877,0.00461904147768824,0.00614876342590718),
 .UNSPECIFIED.);
#25=B_SPLINE_CURVE_WITH_KNOTS('',3,(#797,#798,#799,#800),.UNSPECIFIED.,
 .F.,.F.,(4,4),(0.00178081948392946,0.00181213064794397),.UNSPECIFIED.);
#26=B_SPLINE_CURVE_WITH_KNOTS('',3,(#810,#811,#812,#813,#814,#815,#816),
 .UNSPECIFIED.,.F.,.F.,(4,1,1,1,4),(0.,0.00101600408708724,0.00203200817417448,
0.00304801226126172,0.00406401634834897),.UNSPECIFIED.);
#27=B_SPLINE_CURVE_WITH_KNOTS('',3,(#820,#821,#822,#823),.UNSPECIFIED.,
 .F.,.F.,(4,4),(0.,0.00120043179624086),.UNSPECIFIED.);
#28=B_SPLINE_CURVE_WITH_KNOTS('',3,(#886,#887,#888,#889,#890,#891,#892,
#893,#894,#895),.UNSPECIFIED.,.F.,.F.,(4,1,1,1,1,1,1,4),(2.08038667088176E-11,
0.000982158734378833,0.0019643174479538,0.00294647616152877,0.00392863487510373,
0.0049107935886787,0.00589295230225367,0.0078572697294036),
 .UNSPECIFIED.);
#29=B_SPLINE_CURVE_WITH_KNOTS('',3,(#912,#913,#914,#915,#916,#917,#918),
 .UNSPECIFIED.,.F.,.F.,(4,1,1,1,4),(0.,0.00103668266958348,0.00207336533916696,
0.00311004800875044,0.00414673067833392),.UNSPECIFIED.);
#30=DEGENERATE_TOROIDAL_SURFACE('',#591,0.002,0.003,.T.);
#31=DEGENERATE_TOROIDAL_SURFACE('',#598,0.00199999999999997,0.003,.T.);
#32=DEGENERATE_TOROIDAL_SURFACE('',#618,0.00199999999999997,0.003,.T.);
#33=DEGENERATE_TOROIDAL_SURFACE('',#622,0.002,0.003,.T.);
#34=LINE('',#781,#58);
#35=LINE('',#785,#59);
#36=LINE('',#807,#60);
#37=LINE('',#818,#61);
#38=LINE('',#824,#62);
#39=LINE('',#826,#63);
#40=LINE('',#828,#64);
#41=LINE('',#852,#65);
#42=LINE('',#856,#66);
#43=LINE('',#857,#67);
#44=LINE('',#860,#68);
#45=LINE('',#862,#69);
#46=LINE('',#864,#70);
#47=LINE('',#870,#71);
#48=LINE('',#872,#72);
#49=LINE('',#874,#73);
#50=LINE('',#876,#74);
#51=LINE('',#878,#75);
#52=LINE('',#880,#76);
#53=LINE('',#882,#77);
#54=LINE('',#884,#78);
#55=LINE('',#924,#79);
#56=LINE('',#926,#80);
#57=LINE('',#927,#81);
#58=VECTOR('',#648,1.);
#59=VECTOR('',#651,1.);
#60=VECTOR('',#662,1.);
#61=VECTOR('',#663,1.);
#62=VECTOR('',#664,1.);
#63=VECTOR('',#665,1.);
#64=VECTOR('',#666,1.);
#65=VECTOR('',#697,1.);
#66=VECTOR('',#700,1.);
#67=VECTOR('',#701,1.);
#68=VECTOR('',#702,1.);
#69=VECTOR('',#703,1.);
#70=VECTOR('',#704,1.);
#71=VECTOR('',#711,1.);
#72=VECTOR('',#712,1.);
#73=VECTOR('',#713,1.);
#74=VECTOR('',#716,1.);
#75=VECTOR('',#717,1.);
#76=VECTOR('',#720,1.);
#77=VECTOR('',#721,1.);
#78=VECTOR('',#724,1.);
#79=VECTOR('',#751,1.);
#80=VECTOR('',#754,1.);
#81=VECTOR('',#755,1.);
#82=ORIENTED_EDGE('',*,*,#204,.T.);
#83=ORIENTED_EDGE('',*,*,#205,.F.);
#84=ORIENTED_EDGE('',*,*,#206,.T.);
#85=ORIENTED_EDGE('',*,*,#207,.F.);
#86=ORIENTED_EDGE('',*,*,#208,.F.);
#87=ORIENTED_EDGE('',*,*,#209,.F.);
#88=ORIENTED_EDGE('',*,*,#210,.F.);
#89=ORIENTED_EDGE('',*,*,#204,.F.);
#90=ORIENTED_EDGE('',*,*,#211,.T.);
#91=ORIENTED_EDGE('',*,*,#212,.T.);
#92=ORIENTED_EDGE('',*,*,#213,.F.);
#93=ORIENTED_EDGE('',*,*,#214,.F.);
#94=ORIENTED_EDGE('',*,*,#215,.F.);
#95=ORIENTED_EDGE('',*,*,#216,.F.);
#96=ORIENTED_EDGE('',*,*,#212,.F.);
#97=ORIENTED_EDGE('',*,*,#217,.T.);
#98=ORIENTED_EDGE('',*,*,#218,.F.);
#99=ORIENTED_EDGE('',*,*,#219,.F.);
#100=ORIENTED_EDGE('',*,*,#220,.T.);
#101=ORIENTED_EDGE('',*,*,#221,.T.);
#102=ORIENTED_EDGE('',*,*,#221,.F.);
#103=ORIENTED_EDGE('',*,*,#222,.T.);
#104=ORIENTED_EDGE('',*,*,#223,.T.);
#105=ORIENTED_EDGE('',*,*,#224,.T.);
#106=ORIENTED_EDGE('',*,*,#225,.F.);
#107=ORIENTED_EDGE('',*,*,#226,.F.);
#108=ORIENTED_EDGE('',*,*,#214,.T.);
#109=ORIENTED_EDGE('',*,*,#227,.T.);
#110=ORIENTED_EDGE('',*,*,#228,.F.);
#111=ORIENTED_EDGE('',*,*,#216,.T.);
#112=ORIENTED_EDGE('',*,*,#229,.T.);
#113=ORIENTED_EDGE('',*,*,#209,.T.);
#114=ORIENTED_EDGE('',*,*,#208,.T.);
#115=ORIENTED_EDGE('',*,*,#219,.T.);
#116=ORIENTED_EDGE('',*,*,#218,.T.);
#117=ORIENTED_EDGE('',*,*,#217,.F.);
#118=ORIENTED_EDGE('',*,*,#211,.F.);
#119=ORIENTED_EDGE('',*,*,#207,.T.);
#120=ORIENTED_EDGE('',*,*,#230,.F.);
#121=ORIENTED_EDGE('',*,*,#231,.T.);
#122=ORIENTED_EDGE('',*,*,#232,.F.);
#123=ORIENTED_EDGE('',*,*,#233,.F.);
#124=ORIENTED_EDGE('',*,*,#223,.F.);
#125=ORIENTED_EDGE('',*,*,#222,.F.);
#126=ORIENTED_EDGE('',*,*,#220,.F.);
#127=ORIENTED_EDGE('',*,*,#226,.T.);
#128=ORIENTED_EDGE('',*,*,#228,.T.);
#129=ORIENTED_EDGE('',*,*,#234,.T.);
#130=ORIENTED_EDGE('',*,*,#235,.T.);
#131=ORIENTED_EDGE('',*,*,#236,.F.);
#132=ORIENTED_EDGE('',*,*,#237,.F.);
#133=ORIENTED_EDGE('',*,*,#238,.T.);
#134=ORIENTED_EDGE('',*,*,#239,.T.);
#135=ORIENTED_EDGE('',*,*,#237,.T.);
#136=ORIENTED_EDGE('',*,*,#240,.F.);
#137=ORIENTED_EDGE('',*,*,#241,.F.);
#138=ORIENTED_EDGE('',*,*,#242,.T.);
#139=ORIENTED_EDGE('',*,*,#236,.T.);
#140=ORIENTED_EDGE('',*,*,#243,.F.);
#141=ORIENTED_EDGE('',*,*,#244,.F.);
#142=ORIENTED_EDGE('',*,*,#240,.T.);
#143=ORIENTED_EDGE('',*,*,#235,.F.);
#144=ORIENTED_EDGE('',*,*,#245,.F.);
#145=ORIENTED_EDGE('',*,*,#246,.T.);
#146=ORIENTED_EDGE('',*,*,#243,.T.);
#147=ORIENTED_EDGE('',*,*,#234,.F.);
#148=ORIENTED_EDGE('',*,*,#242,.F.);
#149=ORIENTED_EDGE('',*,*,#247,.T.);
#150=ORIENTED_EDGE('',*,*,#245,.T.);
#151=ORIENTED_EDGE('',*,*,#248,.F.);
#152=ORIENTED_EDGE('',*,*,#249,.F.);
#153=ORIENTED_EDGE('',*,*,#250,.T.);
#154=ORIENTED_EDGE('',*,*,#230,.T.);
#155=ORIENTED_EDGE('',*,*,#206,.F.);
#156=ORIENTED_EDGE('',*,*,#251,.F.);
#157=ORIENTED_EDGE('',*,*,#252,.F.);
#158=ORIENTED_EDGE('',*,*,#253,.F.);
#159=ORIENTED_EDGE('',*,*,#254,.T.);
#160=ORIENTED_EDGE('',*,*,#232,.T.);
#161=ORIENTED_EDGE('',*,*,#255,.T.);
#162=ORIENTED_EDGE('',*,*,#256,.T.);
#163=ORIENTED_EDGE('',*,*,#239,.F.);
#164=ORIENTED_EDGE('',*,*,#257,.T.);
#165=ORIENTED_EDGE('',*,*,#258,.T.);
#166=ORIENTED_EDGE('',*,*,#247,.F.);
#167=ORIENTED_EDGE('',*,*,#241,.T.);
#168=ORIENTED_EDGE('',*,*,#244,.T.);
#169=ORIENTED_EDGE('',*,*,#246,.F.);
#170=ORIENTED_EDGE('',*,*,#259,.T.);
#171=ORIENTED_EDGE('',*,*,#249,.T.);
#172=ORIENTED_EDGE('',*,*,#260,.F.);
#173=ORIENTED_EDGE('',*,*,#251,.T.);
#174=ORIENTED_EDGE('',*,*,#205,.T.);
#175=ORIENTED_EDGE('',*,*,#210,.T.);
#176=ORIENTED_EDGE('',*,*,#229,.F.);
#177=ORIENTED_EDGE('',*,*,#215,.T.);
#178=ORIENTED_EDGE('',*,*,#227,.F.);
#179=ORIENTED_EDGE('',*,*,#213,.T.);
#180=ORIENTED_EDGE('',*,*,#225,.T.);
#181=ORIENTED_EDGE('',*,*,#261,.T.);
#182=ORIENTED_EDGE('',*,*,#253,.T.);
#183=ORIENTED_EDGE('',*,*,#262,.T.);
#184=ORIENTED_EDGE('',*,*,#255,.F.);
#185=ORIENTED_EDGE('',*,*,#260,.T.);
#186=ORIENTED_EDGE('',*,*,#248,.T.);
#187=ORIENTED_EDGE('',*,*,#238,.F.);
#188=ORIENTED_EDGE('',*,*,#258,.F.);
#189=ORIENTED_EDGE('',*,*,#263,.F.);
#190=ORIENTED_EDGE('',*,*,#263,.T.);
#191=ORIENTED_EDGE('',*,*,#257,.F.);
#192=ORIENTED_EDGE('',*,*,#264,.F.);
#193=ORIENTED_EDGE('',*,*,#264,.T.);
#194=ORIENTED_EDGE('',*,*,#259,.F.);
#195=ORIENTED_EDGE('',*,*,#256,.F.);
#196=ORIENTED_EDGE('',*,*,#262,.F.);
#197=ORIENTED_EDGE('',*,*,#252,.T.);
#198=ORIENTED_EDGE('',*,*,#231,.F.);
#199=ORIENTED_EDGE('',*,*,#250,.F.);
#200=ORIENTED_EDGE('',*,*,#261,.F.);
#201=ORIENTED_EDGE('',*,*,#224,.F.);
#202=ORIENTED_EDGE('',*,*,#233,.T.);
#203=ORIENTED_EDGE('',*,*,#254,.F.);
#204=EDGE_CURVE('',#265,#266,#310,.T.);
#205=EDGE_CURVE('',#267,#266,#34,.F.);
#206=EDGE_CURVE('',#267,#268,#311,.T.);
#207=EDGE_CURVE('',#265,#268,#35,.T.);
#208=EDGE_CURVE('',#269,#270,#24,.T.);
#209=EDGE_CURVE('',#271,#269,#25,.T.);
#210=EDGE_CURVE('',#266,#271,#312,.T.);
#211=EDGE_CURVE('',#265,#272,#313,.T.);
#212=EDGE_CURVE('',#272,#270,#314,.T.);
#213=EDGE_CURVE('',#273,#274,#36,.T.);
#214=EDGE_CURVE('',#275,#273,#26,.T.);
#215=EDGE_CURVE('',#276,#275,#37,.T.);
#216=EDGE_CURVE('',#270,#276,#27,.T.);
#217=EDGE_CURVE('',#272,#277,#38,.T.);
#218=EDGE_CURVE('',#278,#277,#39,.T.);
#219=EDGE_CURVE('',#279,#278,#40,.T.);
#220=EDGE_CURVE('',#279,#280,#315,.T.);
#221=EDGE_CURVE('',#280,#274,#316,.T.);
#222=EDGE_CURVE('',#280,#281,#317,.T.);
#223=EDGE_CURVE('',#281,#282,#318,.T.);
#224=EDGE_CURVE('',#282,#283,#319,.T.);
#225=EDGE_CURVE('',#274,#283,#320,.T.);
#226=EDGE_CURVE('',#284,#284,#321,.T.);
#227=EDGE_CURVE('',#273,#275,#322,.T.);
#228=EDGE_CURVE('',#285,#285,#323,.T.);
#229=EDGE_CURVE('',#276,#271,#324,.T.);
#230=EDGE_CURVE('',#286,#268,#325,.T.);
#231=EDGE_CURVE('',#286,#287,#41,.T.);
#232=EDGE_CURVE('',#288,#287,#326,.T.);
#233=EDGE_CURVE('',#282,#288,#42,.T.);
#234=EDGE_CURVE('',#289,#290,#43,.T.);
#235=EDGE_CURVE('',#290,#291,#44,.T.);
#236=EDGE_CURVE('',#292,#291,#45,.T.);
#237=EDGE_CURVE('',#289,#292,#46,.T.);
#238=EDGE_CURVE('',#293,#293,#327,.T.);
#239=EDGE_CURVE('',#294,#294,#328,.T.);
#240=EDGE_CURVE('',#295,#292,#47,.T.);
#241=EDGE_CURVE('',#296,#295,#48,.T.);
#242=EDGE_CURVE('',#296,#289,#49,.T.);
#243=EDGE_CURVE('',#297,#291,#50,.T.);
#244=EDGE_CURVE('',#295,#297,#51,.T.);
#245=EDGE_CURVE('',#298,#290,#52,.T.);
#246=EDGE_CURVE('',#298,#297,#53,.T.);
#247=EDGE_CURVE('',#296,#298,#54,.T.);
#248=EDGE_CURVE('',#299,#300,#28,.T.);
#249=EDGE_CURVE('',#301,#299,#329,.T.);
#250=EDGE_CURVE('',#301,#286,#330,.T.);
#251=EDGE_CURVE('',#300,#267,#331,.T.);
#252=EDGE_CURVE('',#302,#287,#332,.T.);
#253=EDGE_CURVE('',#303,#302,#333,.T.);
#254=EDGE_CURVE('',#303,#288,#334,.T.);
#255=EDGE_CURVE('',#304,#305,#335,.T.);
#256=EDGE_CURVE('',#305,#304,#29,.T.);
#257=EDGE_CURVE('',#306,#306,#336,.F.);
#258=EDGE_CURVE('',#307,#307,#337,.F.);
#259=EDGE_CURVE('',#304,#301,#55,.F.);
#260=EDGE_CURVE('',#300,#299,#338,.T.);
#261=EDGE_CURVE('',#283,#303,#56,.T.);
#262=EDGE_CURVE('',#302,#305,#57,.F.);
#263=EDGE_CURVE('',#308,#308,#339,.T.);
#264=EDGE_CURVE('',#309,#309,#340,.T.);
#265=VERTEX_POINT('',#779);
#266=VERTEX_POINT('',#780);
#267=VERTEX_POINT('',#782);
#268=VERTEX_POINT('',#784);
#269=VERTEX_POINT('',#795);
#270=VERTEX_POINT('',#796);
#271=VERTEX_POINT('',#801);
#272=VERTEX_POINT('',#804);
#273=VERTEX_POINT('',#808);
#274=VERTEX_POINT('',#809);
#275=VERTEX_POINT('',#817);
#276=VERTEX_POINT('',#819);
#277=VERTEX_POINT('',#825);
#278=VERTEX_POINT('',#827);
#279=VERTEX_POINT('',#829);
#280=VERTEX_POINT('',#831);
#281=VERTEX_POINT('',#835);
#282=VERTEX_POINT('',#837);
#283=VERTEX_POINT('',#839);
#284=VERTEX_POINT('',#843);
#285=VERTEX_POINT('',#847);
#286=VERTEX_POINT('',#851);
#287=VERTEX_POINT('',#853);
#288=VERTEX_POINT('',#855);
#289=VERTEX_POINT('',#858);
#290=VERTEX_POINT('',#859);
#291=VERTEX_POINT('',#861);
#292=VERTEX_POINT('',#863);
#293=VERTEX_POINT('',#866);
#294=VERTEX_POINT('',#868);
#295=VERTEX_POINT('',#871);
#296=VERTEX_POINT('',#873);
#297=VERTEX_POINT('',#877);
#298=VERTEX_POINT('',#881);
#299=VERTEX_POINT('',#896);
#300=VERTEX_POINT('',#897);
#301=VERTEX_POINT('',#899);
#302=VERTEX_POINT('',#904);
#303=VERTEX_POINT('',#906);
#304=VERTEX_POINT('',#910);
#305=VERTEX_POINT('',#911);
#306=VERTEX_POINT('',#921);
#307=VERTEX_POINT('',#923);
#308=VERTEX_POINT('',#931);
#309=VERTEX_POINT('',#935);
#310=CIRCLE('',#589,0.003);
#311=CIRCLE('',#590,0.003);
#312=CIRCLE('',#592,0.002);
#313=CIRCLE('',#593,0.005);
#314=CIRCLE('',#594,0.003);
#315=CIRCLE('',#596,0.005);
#316=CIRCLE('',#597,0.003);
#317=CIRCLE('',#599,0.005);
#318=CIRCLE('',#600,0.005);
#319=CIRCLE('',#601,0.003);
#320=CIRCLE('',#602,0.00199999999999997);
#321=CIRCLE('',#604,0.00166880512319185);
#322=CIRCLE('',#605,0.00166880512319185);
#323=CIRCLE('',#607,0.00166880512319185);
#324=CIRCLE('',#608,0.00166880512319185);
#325=CIRCLE('',#610,0.005);
#326=CIRCLE('',#611,0.005);
#327=CIRCLE('',#612,0.00166880512319185);
#328=CIRCLE('',#613,0.00166880512319185);
#329=CIRCLE('',#619,0.00199999999999997);
#330=CIRCLE('',#620,0.003);
#331=CIRCLE('',#621,0.00199999999999997);
#332=CIRCLE('',#623,0.003);
#333=CIRCLE('',#624,0.002);
#334=CIRCLE('',#625,0.003);
#335=CIRCLE('',#627,0.00166880512319185);
#336=CIRCLE('',#629,0.00206627508034783);
#337=CIRCLE('',#630,0.00206627508034783);
#338=CIRCLE('',#631,0.00166880512319185);
#339=CIRCLE('',#634,0.00206627508034783);
#340=CIRCLE('',#637,0.00206627508034783);
#341=EDGE_LOOP('',(#82,#83,#84,#85));
#342=EDGE_LOOP('',(#86,#87,#88,#89,#90,#91));
#343=EDGE_LOOP('',(#92,#93,#94,#95,#96,#97,#98,#99,#100,#101));
#344=EDGE_LOOP('',(#102,#103,#104,#105,#106));
#345=EDGE_LOOP('',(#107));
#346=EDGE_LOOP('',(#108,#109));
#347=EDGE_LOOP('',(#110));
#348=EDGE_LOOP('',(#111,#112,#113,#114));
#349=EDGE_LOOP('',(#115,#116,#117,#118,#119,#120,#121,#122,#123,#124,#125,
#126));
#350=EDGE_LOOP('',(#127));
#351=EDGE_LOOP('',(#128));
#352=EDGE_LOOP('',(#129,#130,#131,#132));
#353=EDGE_LOOP('',(#133));
#354=EDGE_LOOP('',(#134));
#355=EDGE_LOOP('',(#135,#136,#137,#138));
#356=EDGE_LOOP('',(#139,#140,#141,#142));
#357=EDGE_LOOP('',(#143,#144,#145,#146));
#358=EDGE_LOOP('',(#147,#148,#149,#150));
#359=EDGE_LOOP('',(#151,#152,#153,#154,#155,#156));
#360=EDGE_LOOP('',(#157,#158,#159,#160));
#361=EDGE_LOOP('',(#161,#162));
#362=EDGE_LOOP('',(#163));
#363=EDGE_LOOP('',(#164));
#364=EDGE_LOOP('',(#165));
#365=EDGE_LOOP('',(#166,#167,#168,#169));
#366=EDGE_LOOP('',(#170,#171,#172,#173,#174,#175,#176,#177,#178,#179,#180,
#181,#182,#183,#184));
#367=EDGE_LOOP('',(#185,#186));
#368=EDGE_LOOP('',(#187));
#369=EDGE_LOOP('',(#188));
#370=EDGE_LOOP('',(#189));
#371=EDGE_LOOP('',(#190));
#372=EDGE_LOOP('',(#191));
#373=EDGE_LOOP('',(#192));
#374=EDGE_LOOP('',(#193));
#375=EDGE_LOOP('',(#194,#195,#196,#197,#198,#199));
#376=EDGE_LOOP('',(#200,#201,#202,#203));
#377=FACE_BOUND('',#341,.T.);
#378=FACE_BOUND('',#342,.T.);
#379=FACE_BOUND('',#343,.T.);
#380=FACE_BOUND('',#344,.T.);
#381=FACE_BOUND('',#345,.T.);
#382=FACE_BOUND('',#346,.T.);
#383=FACE_BOUND('',#347,.T.);
#384=FACE_BOUND('',#348,.T.);
#385=FACE_BOUND('',#349,.T.);
#386=FACE_BOUND('',#350,.T.);
#387=FACE_BOUND('',#351,.T.);
#388=FACE_BOUND('',#352,.T.);
#389=FACE_BOUND('',#353,.T.);
#390=FACE_BOUND('',#354,.T.);
#391=FACE_BOUND('',#355,.T.);
#392=FACE_BOUND('',#356,.T.);
#393=FACE_BOUND('',#357,.T.);
#394=FACE_BOUND('',#358,.T.);
#395=FACE_BOUND('',#359,.T.);
#396=FACE_BOUND('',#360,.T.);
#397=FACE_BOUND('',#361,.T.);
#398=FACE_BOUND('',#362,.T.);
#399=FACE_BOUND('',#363,.T.);
#400=FACE_BOUND('',#364,.T.);
#401=FACE_BOUND('',#365,.T.);
#402=FACE_BOUND('',#366,.T.);
#403=FACE_BOUND('',#367,.T.);
#404=FACE_BOUND('',#368,.T.);
#405=FACE_BOUND('',#369,.T.);
#406=FACE_BOUND('',#370,.T.);
#407=FACE_BOUND('',#371,.T.);
#408=FACE_BOUND('',#372,.T.);
#409=FACE_BOUND('',#373,.T.);
#410=FACE_BOUND('',#374,.T.);
#411=FACE_BOUND('',#375,.T.);
#412=FACE_BOUND('',#376,.T.);
#413=CYLINDRICAL_SURFACE('',#588,0.003);
#414=CYLINDRICAL_SURFACE('',#595,0.003);
#415=CYLINDRICAL_SURFACE('',#603,0.00166880512319185);
#416=CYLINDRICAL_SURFACE('',#606,0.00166880512319185);
#417=CYLINDRICAL_SURFACE('',#626,0.00166880512319185);
#418=CYLINDRICAL_SURFACE('',#632,0.00166880512319185);
#419=CYLINDRICAL_SURFACE('',#633,0.00206627508034783);
#420=CYLINDRICAL_SURFACE('',#636,0.00206627508034783);
#421=CYLINDRICAL_SURFACE('',#639,0.003);
#422=CYLINDRICAL_SURFACE('',#640,0.003);
#423=OVER_RIDING_STYLED_ITEM('',(#466),#441,#464);
#424=OVER_RIDING_STYLED_ITEM('',(#467),#442,#464);
#425=OVER_RIDING_STYLED_ITEM('',(#468),#443,#464);
#426=OVER_RIDING_STYLED_ITEM('',(#469),#444,#464);
#427=OVER_RIDING_STYLED_ITEM('',(#470),#445,#464);
#428=OVER_RIDING_STYLED_ITEM('',(#471),#446,#464);
#429=OVER_RIDING_STYLED_ITEM('',(#472),#447,#464);
#430=OVER_RIDING_STYLED_ITEM('',(#473),#448,#464);
#431=OVER_RIDING_STYLED_ITEM('',(#474),#449,#464);
#432=OVER_RIDING_STYLED_ITEM('',(#475),#450,#464);
#433=OVER_RIDING_STYLED_ITEM('',(#476),#451,#464);
#434=OVER_RIDING_STYLED_ITEM('',(#477),#452,#464);
#435=OVER_RIDING_STYLED_ITEM('',(#478),#453,#464);
#436=OVER_RIDING_STYLED_ITEM('',(#479),#454,#464);
#437=OVER_RIDING_STYLED_ITEM('',(#480),#455,#464);
#438=OVER_RIDING_STYLED_ITEM('',(#481),#456,#464);
#439=OVER_RIDING_STYLED_ITEM('',(#482),#461,#464);
#440=OVER_RIDING_STYLED_ITEM('',(#483),#462,#464);
#441=ADVANCED_FACE('',(#377),#413,.T.);
#442=ADVANCED_FACE('',(#378),#30,.T.);
#443=ADVANCED_FACE('',(#379),#414,.T.);
#444=ADVANCED_FACE('',(#380),#31,.T.);
#445=ADVANCED_FACE('',(#381,#382),#415,.F.);
#446=ADVANCED_FACE('',(#383,#384),#416,.F.);
#447=ADVANCED_FACE('',(#385,#386,#387,#388,#389,#390),#16,.F.);
#448=ADVANCED_FACE('',(#391),#17,.F.);
#449=ADVANCED_FACE('',(#392),#18,.F.);
#450=ADVANCED_FACE('',(#393),#19,.T.);
#451=ADVANCED_FACE('',(#394),#20,.T.);
#452=ADVANCED_FACE('',(#395),#32,.T.);
#453=ADVANCED_FACE('',(#396),#33,.T.);
#454=ADVANCED_FACE('',(#397,#398),#417,.F.);
#455=ADVANCED_FACE('',(#399,#400,#401,#402),#21,.T.);
#456=ADVANCED_FACE('',(#403,#404),#418,.F.);
#457=ADVANCED_FACE('',(#405,#406),#419,.T.);
#458=ADVANCED_FACE('',(#407),#22,.T.);
#459=ADVANCED_FACE('',(#408,#409),#420,.T.);
#460=ADVANCED_FACE('',(#410),#23,.T.);
#461=ADVANCED_FACE('',(#411),#421,.T.);
#462=ADVANCED_FACE('',(#412),#422,.T.);
#463=CLOSED_SHELL('',(#441,#442,#443,#444,#445,#446,#447,#448,#449,#450,
#451,#452,#453,#454,#455,#456,#457,#458,#459,#460,#461,#462));
#464=STYLED_ITEM('',(#465),#582);
#465=PRESENTATION_STYLE_ASSIGNMENT((#484));
#466=PRESENTATION_STYLE_ASSIGNMENT((#485));
#467=PRESENTATION_STYLE_ASSIGNMENT((#486));
#468=PRESENTATION_STYLE_ASSIGNMENT((#487));
#469=PRESENTATION_STYLE_ASSIGNMENT((#488));
#470=PRESENTATION_STYLE_ASSIGNMENT((#489));
#471=PRESENTATION_STYLE_ASSIGNMENT((#490));
#472=PRESENTATION_STYLE_ASSIGNMENT((#491));
#473=PRESENTATION_STYLE_ASSIGNMENT((#492));
#474=PRESENTATION_STYLE_ASSIGNMENT((#493));
#475=PRESENTATION_STYLE_ASSIGNMENT((#494));
#476=PRESENTATION_STYLE_ASSIGNMENT((#495));
#477=PRESENTATION_STYLE_ASSIGNMENT((#496));
#478=PRESENTATION_STYLE_ASSIGNMENT((#497));
#479=PRESENTATION_STYLE_ASSIGNMENT((#498));
#480=PRESENTATION_STYLE_ASSIGNMENT((#499));
#481=PRESENTATION_STYLE_ASSIGNMENT((#500));
#482=PRESENTATION_STYLE_ASSIGNMENT((#501));
#483=PRESENTATION_STYLE_ASSIGNMENT((#502));
#484=SURFACE_STYLE_USAGE(.BOTH.,#503);
#485=SURFACE_STYLE_USAGE(.BOTH.,#504);
#486=SURFACE_STYLE_USAGE(.BOTH.,#505);
#487=SURFACE_STYLE_USAGE(.BOTH.,#506);
#488=SURFACE_STYLE_USAGE(.BOTH.,#507);
#489=SURFACE_STYLE_USAGE(.BOTH.,#508);
#490=SURFACE_STYLE_USAGE(.BOTH.,#509);
#491=SURFACE_STYLE_USAGE(.BOTH.,#510);
#492=SURFACE_STYLE_USAGE(.BOTH.,#511);
#493=SURFACE_STYLE_USAGE(.BOTH.,#512);
#494=SURFACE_STYLE_USAGE(.BOTH.,#513);
#495=SURFACE_STYLE_USAGE(.BOTH.,#514);
#496=SURFACE_STYLE_USAGE(.BOTH.,#515);
#497=SURFACE_STYLE_USAGE(.BOTH.,#516);
#498=SURFACE_STYLE_USAGE(.BOTH.,#517);
#499=SURFACE_STYLE_USAGE(.BOTH.,#518);
#500=SURFACE_STYLE_USAGE(.BOTH.,#519);
#501=SURFACE_STYLE_USAGE(.BOTH.,#520);
#502=SURFACE_STYLE_USAGE(.BOTH.,#521);
#503=SURFACE_SIDE_STYLE('',(#522));
#504=SURFACE_SIDE_STYLE('',(#523));
#505=SURFACE_SIDE_STYLE('',(#524));
#506=SURFACE_SIDE_STYLE('',(#525));
#507=SURFACE_SIDE_STYLE('',(#526));
#508=SURFACE_SIDE_STYLE('',(#527));
#509=SURFACE_SIDE_STYLE('',(#528));
#510=SURFACE_SIDE_STYLE('',(#529));
#511=SURFACE_SIDE_STYLE('',(#530));
#512=SURFACE_SIDE_STYLE('',(#531));
#513=SURFACE_SIDE_STYLE('',(#532));
#514=SURFACE_SIDE_STYLE('',(#533));
#515=SURFACE_SIDE_STYLE('',(#534));
#516=SURFACE_SIDE_STYLE('',(#535));
#517=SURFACE_SIDE_STYLE('',(#536));
#518=SURFACE_SIDE_STYLE('',(#537));
#519=SURFACE_SIDE_STYLE('',(#538));
#520=SURFACE_SIDE_STYLE('',(#539));
#521=SURFACE_SIDE_STYLE('',(#540));
#522=SURFACE_STYLE_FILL_AREA(#541);
#523=SURFACE_STYLE_FILL_AREA(#542);
#524=SURFACE_STYLE_FILL_AREA(#543);
#525=SURFACE_STYLE_FILL_AREA(#544);
#526=SURFACE_STYLE_FILL_AREA(#545);
#527=SURFACE_STYLE_FILL_AREA(#546);
#528=SURFACE_STYLE_FILL_AREA(#547);
#529=SURFACE_STYLE_FILL_AREA(#548);
#530=SURFACE_STYLE_FILL_AREA(#549);
#531=SURFACE_STYLE_FILL_AREA(#550);
#532=SURFACE_STYLE_FILL_AREA(#551);
#533=SURFACE_STYLE_FILL_AREA(#552);
#534=SURFACE_STYLE_FILL_AREA(#553);
#535=SURFACE_STYLE_FILL_AREA(#554);
#536=SURFACE_STYLE_FILL_AREA(#555);
#537=SURFACE_STYLE_FILL_AREA(#556);
#538=SURFACE_STYLE_FILL_AREA(#557);
#539=SURFACE_STYLE_FILL_AREA(#558);
#540=SURFACE_STYLE_FILL_AREA(#559);
#541=FILL_AREA_STYLE('',(#560));
#542=FILL_AREA_STYLE('',(#561));
#543=FILL_AREA_STYLE('',(#562));
#544=FILL_AREA_STYLE('',(#563));
#545=FILL_AREA_STYLE('',(#564));
#546=FILL_AREA_STYLE('',(#565));
#547=FILL_AREA_STYLE('',(#566));
#548=FILL_AREA_STYLE('',(#567));
#549=FILL_AREA_STYLE('',(#568));
#550=FILL_AREA_STYLE('',(#569));
#551=FILL_AREA_STYLE('',(#570));
#552=FILL_AREA_STYLE('',(#571));
#553=FILL_AREA_STYLE('',(#572));
#554=FILL_AREA_STYLE('',(#573));
#555=FILL_AREA_STYLE('',(#574));
#556=FILL_AREA_STYLE('',(#575));
#557=FILL_AREA_STYLE('',(#576));
#558=FILL_AREA_STYLE('',(#577));
#559=FILL_AREA_STYLE('',(#578));
#560=FILL_AREA_STYLE_COLOUR('',#579);
#561=FILL_AREA_STYLE_COLOUR('',#580);
#562=FILL_AREA_STYLE_COLOUR('',#580);
#563=FILL_AREA_STYLE_COLOUR('',#580);
#564=FILL_AREA_STYLE_COLOUR('',#580);
#565=FILL_AREA_STYLE_COLOUR('',#581);
#566=FILL_AREA_STYLE_COLOUR('',#581);
#567=FILL_AREA_STYLE_COLOUR('',#581);
#568=FILL_AREA_STYLE_COLOUR('',#581);
#569=FILL_AREA_STYLE_COLOUR('',#581);
#570=FILL_AREA_STYLE_COLOUR('',#581);
#571=FILL_AREA_STYLE_COLOUR('',#581);
#572=FILL_AREA_STYLE_COLOUR('',#580);
#573=FILL_AREA_STYLE_COLOUR('',#580);
#574=FILL_AREA_STYLE_COLOUR('',#581);
#575=FILL_AREA_STYLE_COLOUR('',#581);
#576=FILL_AREA_STYLE_COLOUR('',#581);
#577=FILL_AREA_STYLE_COLOUR('',#580);
#578=FILL_AREA_STYLE_COLOUR('',#580);
#579=COLOUR_RGB('',0.917647058823529,0.823529411764706,0.635294117647059);
#580=COLOUR_RGB('',0.823529411764706,0.623529411764706,0.0352941176470589);
#581=COLOUR_RGB('',0.650980392156863,0.486274509803922,0.0196078431372549);
#582=MANIFOLD_SOLID_BREP('Part 1',#463);
#583=SHAPE_DEFINITION_REPRESENTATION(#948,#585);
#584=SHAPE_DEFINITION_REPRESENTATION(#949,#586);
#585=SHAPE_REPRESENTATION('Assembly 2',(#587,#641),#941);
#586=SHAPE_REPRESENTATION('Part 1',(#587),#942);
#587=AXIS2_PLACEMENT_3D('',#776,#642,#643);
#588=AXIS2_PLACEMENT_3D('',#777,#644,#645);
#589=AXIS2_PLACEMENT_3D('',#778,#646,#647);
#590=AXIS2_PLACEMENT_3D('',#783,#649,#650);
#591=AXIS2_PLACEMENT_3D('',#786,#652,#653);
#592=AXIS2_PLACEMENT_3D('',#802,#654,#655);
#593=AXIS2_PLACEMENT_3D('',#803,#656,#657);
#594=AXIS2_PLACEMENT_3D('',#805,#658,#659);
#595=AXIS2_PLACEMENT_3D('',#806,#660,#661);
#596=AXIS2_PLACEMENT_3D('',#830,#667,#668);
#597=AXIS2_PLACEMENT_3D('',#832,#669,#670);
#598=AXIS2_PLACEMENT_3D('',#833,#671,#672);
#599=AXIS2_PLACEMENT_3D('',#834,#673,#674);
#600=AXIS2_PLACEMENT_3D('',#836,#675,#676);
#601=AXIS2_PLACEMENT_3D('',#838,#677,#678);
#602=AXIS2_PLACEMENT_3D('',#840,#679,#680);
#603=AXIS2_PLACEMENT_3D('',#841,#681,#682);
#604=AXIS2_PLACEMENT_3D('',#842,#683,#684);
#605=AXIS2_PLACEMENT_3D('',#844,#685,#686);
#606=AXIS2_PLACEMENT_3D('',#845,#687,#688);
#607=AXIS2_PLACEMENT_3D('',#846,#689,#690);
#608=AXIS2_PLACEMENT_3D('',#848,#691,#692);
#609=AXIS2_PLACEMENT_3D('',#849,#693,#694);
#610=AXIS2_PLACEMENT_3D('',#850,#695,#696);
#611=AXIS2_PLACEMENT_3D('',#854,#698,#699);
#612=AXIS2_PLACEMENT_3D('',#865,#705,#706);
#613=AXIS2_PLACEMENT_3D('',#867,#707,#708);
#614=AXIS2_PLACEMENT_3D('',#869,#709,#710);
#615=AXIS2_PLACEMENT_3D('',#875,#714,#715);
#616=AXIS2_PLACEMENT_3D('',#879,#718,#719);
#617=AXIS2_PLACEMENT_3D('',#883,#722,#723);
#618=AXIS2_PLACEMENT_3D('',#885,#725,#726);
#619=AXIS2_PLACEMENT_3D('',#898,#727,#728);
#620=AXIS2_PLACEMENT_3D('',#900,#729,#730);
#621=AXIS2_PLACEMENT_3D('',#901,#731,#732);
#622=AXIS2_PLACEMENT_3D('',#902,#733,#734);
#623=AXIS2_PLACEMENT_3D('',#903,#735,#736);
#624=AXIS2_PLACEMENT_3D('',#905,#737,#738);
#625=AXIS2_PLACEMENT_3D('',#907,#739,#740);
#626=AXIS2_PLACEMENT_3D('',#908,#741,#742);
#627=AXIS2_PLACEMENT_3D('',#909,#743,#744);
#628=AXIS2_PLACEMENT_3D('',#919,#745,#746);
#629=AXIS2_PLACEMENT_3D('',#920,#747,#748);
#630=AXIS2_PLACEMENT_3D('',#922,#749,#750);
#631=AXIS2_PLACEMENT_3D('',#925,#752,#753);
#632=AXIS2_PLACEMENT_3D('',#928,#756,#757);
#633=AXIS2_PLACEMENT_3D('',#929,#758,#759);
#634=AXIS2_PLACEMENT_3D('',#930,#760,#761);
#635=AXIS2_PLACEMENT_3D('',#932,#762,#763);
#636=AXIS2_PLACEMENT_3D('',#933,#764,#765);
#637=AXIS2_PLACEMENT_3D('',#934,#766,#767);
#638=AXIS2_PLACEMENT_3D('',#936,#768,#769);
#639=AXIS2_PLACEMENT_3D('',#937,#770,#771);
#640=AXIS2_PLACEMENT_3D('',#938,#772,#773);
#641=AXIS2_PLACEMENT_3D('',#939,#774,#775);
#642=DIRECTION('',(0.,0.,1.));
#643=DIRECTION('',(1.,0.,0.));
#644=DIRECTION('',(1.,0.,0.));
#645=DIRECTION('',(0.,0.,-1.));
#646=DIRECTION('',(1.,-2.31296463463574E-15,-2.31296463463574E-15));
#647=DIRECTION('',(-2.31296463463574E-15,0.,-1.));
#648=DIRECTION('',(1.,0.,0.));
#649=DIRECTION('',(-1.,0.,0.));
#650=DIRECTION('',(0.,0.,1.));
#651=DIRECTION('',(1.,0.,0.));
#652=DIRECTION('',(0.,0.,1.));
#653=DIRECTION('',(1.,0.,0.));
#654=DIRECTION('',(0.,0.,1.));
#655=DIRECTION('',(1.,0.,0.));
#656=DIRECTION('',(0.,0.,1.));
#657=DIRECTION('',(2.7755575615629E-15,1.,0.));
#658=DIRECTION('',(0.,1.,0.));
#659=DIRECTION('',(0.,0.,1.));
#660=DIRECTION('',(0.,1.,0.));
#661=DIRECTION('',(0.,0.,1.));
#662=DIRECTION('',(0.,-1.,0.));
#663=DIRECTION('',(0.,-1.,0.));
#664=DIRECTION('',(0.,-1.,0.));
#665=DIRECTION('',(0.,1.,0.));
#666=DIRECTION('',(-1.68219200242355E-16,1.,0.));
#667=DIRECTION('',(0.,0.,1.));
#668=DIRECTION('',(-1.,0.,0.));
#669=DIRECTION('',(2.31296463463574E-15,1.,0.));
#670=DIRECTION('',(-1.,2.31296463463574E-15,0.));
#671=DIRECTION('',(0.,0.,1.));
#672=DIRECTION('',(1.,0.,0.));
#673=DIRECTION('',(0.,0.,1.));
#674=DIRECTION('',(-1.,2.77555756156291E-15,0.));
#675=DIRECTION('',(0.,0.,1.));
#676=DIRECTION('',(-1.,2.77555756156291E-15,0.));
#677=DIRECTION('',(-1.,0.,0.));
#678=DIRECTION('',(0.,0.,1.));
#679=DIRECTION('',(0.,0.,1.));
#680=DIRECTION('',(1.,0.,0.));
#681=DIRECTION('',(0.,0.,-1.));
#682=DIRECTION('',(-1.,0.,0.));
#683=DIRECTION('',(0.,0.,1.));
#684=DIRECTION('',(1.,0.,0.));
#685=DIRECTION('',(0.,0.,1.));
#686=DIRECTION('',(1.,0.,0.));
#687=DIRECTION('',(0.,0.,-1.));
#688=DIRECTION('',(-1.,0.,0.));
#689=DIRECTION('',(0.,0.,1.));
#690=DIRECTION('',(1.,0.,0.));
#691=DIRECTION('',(0.,0.,1.));
#692=DIRECTION('',(1.,0.,0.));
#693=DIRECTION('',(0.,0.,1.));
#694=DIRECTION('',(1.,0.,0.));
#695=DIRECTION('',(0.,0.,1.));
#696=DIRECTION('',(1.,0.,0.));
#697=DIRECTION('',(0.,-1.,0.));
#698=DIRECTION('',(0.,0.,1.));
#699=DIRECTION('',(-4.16333634234434E-15,-1.,0.));
#700=DIRECTION('',(1.,0.,0.));
#701=DIRECTION('',(0.,-1.,0.));
#702=DIRECTION('',(1.,0.,0.));
#703=DIRECTION('',(0.,-1.,0.));
#704=DIRECTION('',(1.,0.,0.));
#705=DIRECTION('',(0.,0.,1.));
#706=DIRECTION('',(1.,0.,0.));
#707=DIRECTION('',(0.,0.,1.));
#708=DIRECTION('',(1.,0.,0.));
#709=DIRECTION('',(0.,1.,0.));
#710=DIRECTION('',(0.,0.,1.));
#711=DIRECTION('',(0.,0.,-1.));
#712=DIRECTION('',(1.,0.,0.));
#713=DIRECTION('',(0.,0.,-1.));
#714=DIRECTION('',(1.,0.,0.));
#715=DIRECTION('',(0.,0.,-1.));
#716=DIRECTION('',(0.,0.,-1.));
#717=DIRECTION('',(0.,-1.,0.));
#718=DIRECTION('',(0.,1.,0.));
#719=DIRECTION('',(0.,0.,1.));
#720=DIRECTION('',(0.,0.,-1.));
#721=DIRECTION('',(1.,0.,0.));
#722=DIRECTION('',(1.,0.,0.));
#723=DIRECTION('',(0.,0.,-1.));
#724=DIRECTION('',(0.,-1.,0.));
#725=DIRECTION('',(0.,0.,1.));
#726=DIRECTION('',(1.,0.,0.));
#727=DIRECTION('',(0.,0.,1.));
#728=DIRECTION('',(1.,0.,0.));
#729=DIRECTION('',(0.,1.,0.));
#730=DIRECTION('',(0.,0.,1.));
#731=DIRECTION('',(0.,0.,1.));
#732=DIRECTION('',(1.,0.,0.));
#733=DIRECTION('',(0.,0.,1.));
#734=DIRECTION('',(1.,0.,0.));
#735=DIRECTION('',(0.,1.,0.));
#736=DIRECTION('',(0.,0.,1.));
#737=DIRECTION('',(0.,0.,1.));
#738=DIRECTION('',(1.,0.,0.));
#739=DIRECTION('',(1.,-4.62592926927148E-15,0.));
#740=DIRECTION('',(4.62592926927148E-15,1.,0.));
#741=DIRECTION('',(0.,0.,-1.));
#742=DIRECTION('',(-1.,0.,0.));
#743=DIRECTION('',(0.,0.,1.));
#744=DIRECTION('',(1.,0.,0.));
#745=DIRECTION('',(0.,0.,1.));
#746=DIRECTION('',(1.,0.,0.));
#747=DIRECTION('',(0.,0.,1.));
#748=DIRECTION('',(1.,0.,0.));
#749=DIRECTION('',(0.,0.,1.));
#750=DIRECTION('',(1.,0.,0.));
#751=DIRECTION('',(0.,-1.,0.));
#752=DIRECTION('',(0.,0.,1.));
#753=DIRECTION('',(1.,0.,0.));
#754=DIRECTION('',(1.,0.,0.));
#755=DIRECTION('',(0.,-1.,0.));
#756=DIRECTION('',(0.,0.,-1.));
#757=DIRECTION('',(-1.,0.,0.));
#758=DIRECTION('',(0.,0.,-1.));
#759=DIRECTION('',(-1.,0.,0.));
#760=DIRECTION('',(0.,0.,1.));
#761=DIRECTION('',(1.,0.,0.));
#762=DIRECTION('',(0.,0.,1.));
#763=DIRECTION('',(1.,0.,0.));
#764=DIRECTION('',(0.,0.,-1.));
#765=DIRECTION('',(-1.,0.,0.));
#766=DIRECTION('',(0.,0.,1.));
#767=DIRECTION('',(1.,0.,0.));
#768=DIRECTION('',(0.,0.,1.));
#769=DIRECTION('',(1.,0.,0.));
#770=DIRECTION('',(0.,-1.,0.));
#771=DIRECTION('',(0.,0.,-1.));
#772=DIRECTION('',(-1.,0.,0.));
#773=DIRECTION('',(0.,0.,1.));
#774=DIRECTION('',(0.,0.,1.));
#775=DIRECTION('',(1.,0.,0.));
#776=CARTESIAN_POINT('',(0.,0.,0.));
#777=CARTESIAN_POINT('',(-0.00399850495159632,0.0338647538125515,0.033));
#778=CARTESIAN_POINT('',(-0.0527111244201661,0.0338647538125515,0.033));
#779=CARTESIAN_POINT('',(-0.0527111244201661,0.0368647538125515,0.033));
#780=CARTESIAN_POINT('',(-0.0527111244201661,0.0338647538125515,0.036));
#781=CARTESIAN_POINT('',(-0.00399850495159632,0.0338647538125515,0.036));
#782=CARTESIAN_POINT('',(0.0447141145169734,0.0338647538125515,0.036));
#783=CARTESIAN_POINT('',(0.0447141145169734,0.0338647538125515,0.033));
#784=CARTESIAN_POINT('',(0.0447141145169734,0.0368647538125515,0.033));
#785=CARTESIAN_POINT('',(-0.00399850495159632,0.0368647538125515,0.033));
#786=CARTESIAN_POINT('',(-0.0527111244201661,0.0318647538125515,0.033));
#787=CARTESIAN_POINT('',(-0.053198981433316,0.0338350032543915,0.0359998524804212));
#788=CARTESIAN_POINT('',(-0.0534162026325549,0.0343026991805366,0.0359948323677154));
#789=CARTESIAN_POINT('',(-0.0542785049591812,0.0349730744205617,0.0357268465792644));
#790=CARTESIAN_POINT('',(-0.0555723825367208,0.0347179064615187,0.0352563069737974));
#791=CARTESIAN_POINT('',(-0.056255589091096,0.0339142708013955,0.0351718802354645));
#792=CARTESIAN_POINT('',(-0.0564979385009399,0.0328971763118465,0.0353590910415447));
#793=CARTESIAN_POINT('',(-0.0561736471532598,0.0321863607729409,0.0356501389629739));
#794=CARTESIAN_POINT('',(-0.0557982702244346,0.0318647538125516,0.0357960890544225));
#795=CARTESIAN_POINT('',(-0.0531989814333202,0.0338350032544005,0.0359998524804213));
#796=CARTESIAN_POINT('',(-0.0557982702244345,0.0318647538125515,0.0357960890544226));
#797=CARTESIAN_POINT('',(-0.0531858801618992,0.0338060778910317,0.0359994261344854));
#798=CARTESIAN_POINT('',(-0.0531901620438077,0.0338157760138347,0.0359996158528738));
#799=CARTESIAN_POINT('',(-0.0531945293863541,0.0338254176143419,0.035999757416366));
#800=CARTESIAN_POINT('',(-0.0531989814333202,0.0338350032544005,0.0359998524804213));
#801=CARTESIAN_POINT('',(-0.0531858787991211,0.033806073145388,0.0359996994822183));
#802=CARTESIAN_POINT('',(-0.0527111244201661,0.0318647538125515,0.036));
#803=CARTESIAN_POINT('',(-0.0527111244201661,0.0318647538125515,0.033));
#804=CARTESIAN_POINT('',(-0.0577077285756051,0.0318645427161737,0.033));
#805=CARTESIAN_POINT('',(-0.0547111244201661,0.0318647538125515,0.033));
#806=CARTESIAN_POINT('',(-0.0547111244201661,-0.00956850126385689,0.033));
#807=CARTESIAN_POINT('',(-0.0547111244201661,-0.0510017563402653,0.036));
#808=CARTESIAN_POINT('',(-0.0547111244201661,-0.0484398874212012,0.036));
#809=CARTESIAN_POINT('',(-0.0547111244201661,-0.0510017563402653,0.036));
#810=CARTESIAN_POINT('',(-0.0547111244201661,-0.0453090098928704,0.036));
#811=CARTESIAN_POINT('',(-0.0550338159116366,-0.0454281964906866,0.036));
#812=CARTESIAN_POINT('',(-0.0555857026052946,-0.0458582520587988,0.0358905240959506));
#813=CARTESIAN_POINT('',(-0.0559092521775289,-0.0468721882774805,0.0357469832600096));
#814=CARTESIAN_POINT('',(-0.0555876770994735,-0.0478891167616046,0.0358899879548526));
#815=CARTESIAN_POINT('',(-0.0550337848332326,-0.0483207123022412,0.036));
#816=CARTESIAN_POINT('',(-0.0547111244201661,-0.0484398874212012,0.036));
#817=CARTESIAN_POINT('',(-0.0547111244201661,-0.0453090098928704,0.036));
#818=CARTESIAN_POINT('',(-0.0547111244201661,-0.0510017563402653,0.036));
#819=CARTESIAN_POINT('',(-0.0547111244204038,0.0314632419113608,0.036));
#820=CARTESIAN_POINT('',(-0.0557982702244345,0.0318647538125515,0.0357960890544226));
#821=CARTESIAN_POINT('',(-0.0555030932367027,0.0316118587449234,0.0359108566521218));
#822=CARTESIAN_POINT('',(-0.0551135734522155,0.0314629082776412,0.0359999999999681));
#823=CARTESIAN_POINT('',(-0.0547111244204038,0.0314632419113608,0.036));
#824=CARTESIAN_POINT('',(-0.0577111244201661,-0.00956850126385689,0.033));
#825=CARTESIAN_POINT('',(-0.0577111244201638,0.0317837980554578,0.033));
#826=CARTESIAN_POINT('',(-0.0577111244201661,-0.00956850126385689,0.033));
#827=CARTESIAN_POINT('',(-0.0577150778844951,-0.0500017563402653,0.033));
#828=CARTESIAN_POINT('',(-0.0577163957059382,-0.00969485379755496,0.033));
#829=CARTESIAN_POINT('',(-0.0577124422416091,-0.0509439733624458,0.033));
#830=CARTESIAN_POINT('',(-0.0527163957059382,-0.0509439733624458,0.033));
#831=CARTESIAN_POINT('',(-0.0577143348661649,-0.0510017934812474,0.033));
#832=CARTESIAN_POINT('',(-0.0547111244201661,-0.0510017563402653,0.033));
#833=CARTESIAN_POINT('',(-0.0527111244201661,-0.0510017563402653,0.033));
#834=CARTESIAN_POINT('',(-0.0527111244201661,-0.0510017563402653,0.033));
#835=CARTESIAN_POINT('',(-0.0576929999406411,-0.0514270989063129,0.033));
#836=CARTESIAN_POINT('',(-0.0527111244201661,-0.0510017563402653,0.033));
#837=CARTESIAN_POINT('',(-0.0527111244201661,-0.0560017563402653,0.033));
#838=CARTESIAN_POINT('',(-0.0527111244201661,-0.0530017563402653,0.033));
#839=CARTESIAN_POINT('',(-0.0527111244201661,-0.0530017563402653,0.036));
#840=CARTESIAN_POINT('',(-0.0527111244201661,-0.0510017563402653,0.036));
#841=CARTESIAN_POINT('',(-0.0541329272091389,-0.0468744486570358,0.036));
#842=CARTESIAN_POINT('',(-0.0541329272091389,-0.0468744486570358,0.033));
#843=CARTESIAN_POINT('',(-0.052464122085947,-0.0468744486570358,0.033));
#844=CARTESIAN_POINT('',(-0.0541329272091389,-0.0468744486570358,0.036));
#845=CARTESIAN_POINT('',(-0.0547125078737736,0.0331320464611053,0.036));
#846=CARTESIAN_POINT('',(-0.0547125078737736,0.0331320464611053,0.033));
#847=CARTESIAN_POINT('',(-0.0530437027505817,0.0331320464611053,0.033));
#848=CARTESIAN_POINT('',(-0.0547125078737736,0.0331320464611053,0.036));
#849=CARTESIAN_POINT('',(-0.00399850495159632,-0.00956850126385689,0.033));
#850=CARTESIAN_POINT('',(0.0447141145169734,0.0318647538125515,0.033));
#851=CARTESIAN_POINT('',(0.0497141145169734,0.0318647538125515,0.033));
#852=CARTESIAN_POINT('',(0.0497141145169734,-0.00956850126385689,0.033));
#853=CARTESIAN_POINT('',(0.0497141145169734,-0.0510017563402653,0.033));
#854=CARTESIAN_POINT('',(0.0447141145169734,-0.0510017563402653,0.033));
#855=CARTESIAN_POINT('',(0.0447141145169734,-0.0560017563402653,0.033));
#856=CARTESIAN_POINT('',(-0.00399850495159632,-0.0560017563402653,0.033));
#857=CARTESIAN_POINT('',(-0.0440036617219448,-0.0153243909589947,0.033));
#858=CARTESIAN_POINT('',(-0.0440036617219448,-0.0051416764035821,0.033));
#859=CARTESIAN_POINT('',(-0.0440036617219448,-0.0255071055144071,0.033));
#860=CARTESIAN_POINT('',(-0.00541653111577034,-0.0255071055144071,0.033));
#861=CARTESIAN_POINT('',(0.0331705994904041,-0.0255071055144071,0.033));
#862=CARTESIAN_POINT('',(0.0331705994904041,-0.0153243909589947,0.033));
#863=CARTESIAN_POINT('',(0.0331705994904041,-0.0051416764035821,0.033));
#864=CARTESIAN_POINT('',(-0.00541653111577034,-0.0051416764035821,0.033));
#865=CARTESIAN_POINT('',(0.0466505214571953,0.0336023345589638,0.033));
#866=CARTESIAN_POINT('',(0.0483193265803872,0.0336023345589638,0.033));
#867=CARTESIAN_POINT('',(0.0461737290024757,-0.0474627539515495,0.033));
#868=CARTESIAN_POINT('',(0.0478425341256676,-0.0474627539515495,0.033));
#869=CARTESIAN_POINT('',(-0.00541653111577034,-0.0051416764035821,0.036));
#870=CARTESIAN_POINT('',(0.0331705994904041,-0.0051416764035821,0.036));
#871=CARTESIAN_POINT('',(0.0331705994904041,-0.0051416764035821,0.036));
#872=CARTESIAN_POINT('',(-0.00541653111577034,-0.0051416764035821,0.036));
#873=CARTESIAN_POINT('',(-0.0440036617219448,-0.0051416764035821,0.036));
#874=CARTESIAN_POINT('',(-0.0440036617219448,-0.0051416764035821,0.036));
#875=CARTESIAN_POINT('',(0.0331705994904041,-0.0153243909589947,0.036));
#876=CARTESIAN_POINT('',(0.0331705994904041,-0.0255071055144071,0.036));
#877=CARTESIAN_POINT('',(0.0331705994904041,-0.0255071055144071,0.036));
#878=CARTESIAN_POINT('',(0.0331705994904041,-0.0153243909589947,0.036));
#879=CARTESIAN_POINT('',(-0.00541653111577034,-0.0255071055144071,0.036));
#880=CARTESIAN_POINT('',(-0.0440036617219448,-0.0255071055144071,0.036));
#881=CARTESIAN_POINT('',(-0.0440036617219448,-0.0255071055144071,0.036));
#882=CARTESIAN_POINT('',(-0.00541653111577034,-0.0255071055144071,0.036));
#883=CARTESIAN_POINT('',(-0.0440036617219448,-0.0153243909589947,0.036));
#884=CARTESIAN_POINT('',(-0.0440036617219448,-0.0153243909589947,0.036));
#885=CARTESIAN_POINT('',(0.0447141145169734,0.0318647538125515,0.033));
#886=CARTESIAN_POINT('',(0.0467128911884324,0.0319346953426413,0.036));
#887=CARTESIAN_POINT('',(0.0470450182727244,0.0319471169004825,0.036));
#888=CARTESIAN_POINT('',(0.0476827216238575,0.0321760344343586,0.0358844899787122));
#889=CARTESIAN_POINT('',(0.0482668874913645,0.0329301304763869,0.0355151094659008));
#890=CARTESIAN_POINT('',(0.0483905528697676,0.0338545819672844,0.0351115039862232));
#891=CARTESIAN_POINT('',(0.0479712018069945,0.0347830354613099,0.0348855490064308));
#892=CARTESIAN_POINT('',(0.0470886162480185,0.0353050475728625,0.0351111914087386));
#893=CARTESIAN_POINT('',(0.0458433805494517,0.0352799833796216,0.0356511734034504));
#894=CARTESIAN_POINT('',(0.0450959780783731,0.0345036557252824,0.036));
#895=CARTESIAN_POINT('',(0.044999352524825,0.0338443091360716,0.036));
#896=CARTESIAN_POINT('',(0.046712891188534,0.0319346953426451,0.0359999997505779));
#897=CARTESIAN_POINT('',(0.044999352524825,0.0338443091360716,0.036));
#898=CARTESIAN_POINT('',(0.0447141145169734,0.0318647538125515,0.036));
#899=CARTESIAN_POINT('',(0.0467141145169734,0.0318647538125515,0.036));
#900=CARTESIAN_POINT('',(0.0467141145169734,0.0318647538125515,0.033));
#901=CARTESIAN_POINT('',(0.0447141145169734,0.0318647538125515,0.036));
#902=CARTESIAN_POINT('',(0.0447141145169734,-0.0510017563402653,0.033));
#903=CARTESIAN_POINT('',(0.0467141145169734,-0.0510017563402653,0.033));
#904=CARTESIAN_POINT('',(0.0467141145169734,-0.0510017563402653,0.036));
#905=CARTESIAN_POINT('',(0.0447141145169734,-0.0510017563402653,0.036));
#906=CARTESIAN_POINT('',(0.0447141145169734,-0.0530017563402653,0.036));
#907=CARTESIAN_POINT('',(0.0447141145169734,-0.0530017563402653,0.033));
#908=CARTESIAN_POINT('',(0.0461737290024757,-0.0474627539515495,0.036));
#909=CARTESIAN_POINT('',(0.0461737290024757,-0.0474627539515495,0.036));
#910=CARTESIAN_POINT('',(0.0467141145169734,-0.0458838638239876,0.036));
#911=CARTESIAN_POINT('',(0.0467141145169734,-0.0490416440791114,0.036));
#912=CARTESIAN_POINT('',(0.0467141145169734,-0.0490416440791114,0.036));
#913=CARTESIAN_POINT('',(0.0470462143974686,-0.0489279807141608,0.036));
#914=CARTESIAN_POINT('',(0.0476176442527416,-0.0484987099340948,0.0358834333715831));
#915=CARTESIAN_POINT('',(0.0479543902811934,-0.0474654578249843,0.0357279820078498));
#916=CARTESIAN_POINT('',(0.0476199915288337,-0.0464285186011405,0.0358827738940782));
#917=CARTESIAN_POINT('',(0.0470461707932195,-0.0459975122650976,0.036));
#918=CARTESIAN_POINT('',(0.0467141145169734,-0.0458838638239876,0.036));
#919=CARTESIAN_POINT('',(-0.00399850495159632,-0.00956850126385689,0.036));
#920=CARTESIAN_POINT('',(-0.00545045610564097,0.022106623942729,0.036));
#921=CARTESIAN_POINT('',(-0.00338418102529314,0.022106623942729,0.036));
#922=CARTESIAN_POINT('',(0.0026825345121324,0.0219687521457672,0.036));
#923=CARTESIAN_POINT('',(0.00474880959248024,0.0219687521457672,0.036));
#924=CARTESIAN_POINT('',(0.0467141145169734,-0.00956850126385689,0.036));
#925=CARTESIAN_POINT('',(0.0466505214571953,0.0336023345589638,0.036));
#926=CARTESIAN_POINT('',(0.0447141145169734,-0.0530017563402653,0.036));
#927=CARTESIAN_POINT('',(0.0467141145169734,-0.00956850126385689,0.036));
#928=CARTESIAN_POINT('',(0.0466505214571953,0.0336023345589638,0.036));
#929=CARTESIAN_POINT('',(0.0026825345121324,0.0219687521457672,0.04));
#930=CARTESIAN_POINT('',(0.0026825345121324,0.0219687521457672,0.04));
#931=CARTESIAN_POINT('',(0.00474880959248024,0.0219687521457672,0.04));
#932=CARTESIAN_POINT('',(-0.00138396079675428,0.0220376880442482,0.04));
#933=CARTESIAN_POINT('',(-0.00545045610564097,0.022106623942729,0.04));
#934=CARTESIAN_POINT('',(-0.00545045610564097,0.022106623942729,0.04));
#935=CARTESIAN_POINT('',(-0.00338418102529314,0.022106623942729,0.04));
#936=CARTESIAN_POINT('',(-0.00138396079675428,0.0220376880442482,0.04));
#937=CARTESIAN_POINT('',(0.0467141145169734,-0.00956850126385689,0.033));
#938=CARTESIAN_POINT('',(-0.00399850495159632,-0.0530017563402653,0.033));
#939=CARTESIAN_POINT('',(0.00385552692632141,0.0143665138526142,-0.0101709002703428));
#940=MECHANICAL_DESIGN_GEOMETRIC_PRESENTATION_REPRESENTATION('',(#464,#423,
#424,#425,#426,#427,#428,#429,#430,#431,#432,#433,#434,#435,#436,#437,#438,
#439,#440),#941);
#941=(
GEOMETRIC_REPRESENTATION_CONTEXT(3)
GLOBAL_UNCERTAINTY_ASSIGNED_CONTEXT((#943))
GLOBAL_UNIT_ASSIGNED_CONTEXT((#947,#946,#945))
REPRESENTATION_CONTEXT('Assembly 2','TOP_LEVEL_ASSEMBLY_PART')
);
#942=(
GEOMETRIC_REPRESENTATION_CONTEXT(3)
GLOBAL_UNCERTAINTY_ASSIGNED_CONTEXT((#944))
GLOBAL_UNIT_ASSIGNED_CONTEXT((#947,#946,#945))
REPRESENTATION_CONTEXT('Part 1','COMPONENT_PART')
);
#943=UNCERTAINTY_MEASURE_WITH_UNIT(LENGTH_MEASURE(1.E-8),#947,
'DISTANCE_ACCURACY_VALUE','Maximum Tolerance applied to model');
#944=UNCERTAINTY_MEASURE_WITH_UNIT(LENGTH_MEASURE(2.79069286581168E-5),
#947,'DISTANCE_ACCURACY_VALUE','Maximum Tolerance applied to model');
#945=(
NAMED_UNIT(*)
SI_UNIT($,.STERADIAN.)
SOLID_ANGLE_UNIT()
);
#946=(
NAMED_UNIT(*)
PLANE_ANGLE_UNIT()
SI_UNIT($,.RADIAN.)
);
#947=(
LENGTH_UNIT()
NAMED_UNIT(*)
SI_UNIT($,.METRE.)
);
#948=PRODUCT_DEFINITION_SHAPE('','',#951);
#949=PRODUCT_DEFINITION_SHAPE('','',#952);
#950=PRODUCT_DEFINITION_SHAPE(' ','NAUO PRDDFN',#11);
#951=PRODUCT_DEFINITION('','',#955,#953);
#952=PRODUCT_DEFINITION('','',#956,#954);
#953=PRODUCT_DEFINITION_CONTEXT('',#966,'design');
#954=PRODUCT_DEFINITION_CONTEXT('',#966,'design');
#955=PRODUCT_DEFINITION_FORMATION_WITH_SPECIFIED_SOURCE('','',#959,
 .NOT_KNOWN.);
#956=PRODUCT_DEFINITION_FORMATION_WITH_SPECIFIED_SOURCE('','',#960,
 .NOT_KNOWN.);
#957=PRODUCT_RELATED_PRODUCT_CATEGORY('','',(#959));
#958=PRODUCT_RELATED_PRODUCT_CATEGORY('','',(#960));
#959=PRODUCT('Assembly 2','Assembly 2','Assembly 2',(#963));
#960=PRODUCT('Part 1','Part 1','Part 1',(#964));
#961=PRODUCT_CATEGORY('','');
#962=PRODUCT_CATEGORY('','');
#963=PRODUCT_CONTEXT('',#966,'mechanical');
#964=PRODUCT_CONTEXT('',#966,'mechanical');
#965=APPLICATION_PROTOCOL_DEFINITION('international standard',
'ap242_managed_model_based_3d_engineering',2020,#966);
#966=APPLICATION_CONTEXT('managed model based 3d engineering');
ENDSEC;
END-ISO-10303-21;
